<svg width="36" height="35" viewBox="0 0 36 35" fill="none" xmlns="http://www.w3.org/2000/svg">
<g filter="url(#filter0_d_4_289)">
<path d="M24.5 24L18 20L11.5 24L12.5 16.5L7 10H14.5L18 2.5L22 10H29L23 16.5L24.5 24Z" stroke="#CAD0D7" stroke-width="2" shape-rendering="crispEdges"/>
<path d="M24.5 24L18 20L11.5 24L12.5 16.5L7 10H14.5L18 2.5L22 10H29L23 16.5L24.5 24Z" stroke="#CAD0D7" stroke-width="2" shape-rendering="crispEdges"/>
<path d="M24.5 24L18 20L11.5 24L12.5 16.5L7 10H14.5L18 2.5L22 10H29L23 16.5L24.5 24Z" stroke="#CAD0D7" stroke-width="2" shape-rendering="crispEdges"/>
</g>
<defs>
<filter id="filter0_d_4_289" x="0.843903" y="0.263123" width="34.4401" height="33.7915" filterUnits="userSpaceOnUse" color-interpolation-filters="sRGB">
<feFlood flood-opacity="0" result="BackgroundImageFix"/>
<feColorMatrix in="SourceAlpha" type="matrix" values="0 0 0 0 0 0 0 0 0 0 0 0 0 0 0 0 0 0 127 0" result="hardAlpha"/>
<feOffset dy="4"/>
<feGaussianBlur stdDeviation="2"/>
<feComposite in2="hardAlpha" operator="out"/>
<feColorMatrix type="matrix" values="0 0 0 0 0 0 0 0 0 0 0 0 0 0 0 0 0 0 0.25 0"/>
<feBlend mode="normal" in2="BackgroundImageFix" result="effect1_dropShadow_4_289"/>
<feBlend mode="normal" in="SourceGraphic" in2="effect1_dropShadow_4_289" result="shape"/>
</filter>
</defs>
</svg>
