<svg width="104" height="77" viewBox="0 0 104 77" fill="none" xmlns="http://www.w3.org/2000/svg">
<g filter="url(#filter0_d_4_329)">
<rect x="79.8806" width="32.4296" height="91.7411" rx="16.2148" transform="rotate(59.2961 79.8806 0)" fill="#DED5FA"/>
<path d="M19.218 22.3369C11.8012 23.0994 6.4069 29.73 7.1694 37.1468L8.30779 48.2196C9.07029 55.6364 15.7009 61.0307 23.1176 60.2682L84.5033 53.9572C91.9201 53.1947 97.3144 46.5641 96.5519 39.1474L95.4135 28.0745C94.651 20.6578 88.0204 15.2635 80.6037 16.026L19.218 22.3369Z" fill="#222222" stroke="#DED5FA"/>
<path d="M18.1668 20.8396C10.4754 21.6303 4.88128 28.5065 5.67203 36.1979L7.04889 49.5905C7.83964 57.2819 14.7158 62.876 22.4073 62.0853L85.4685 55.602C93.16 54.8113 98.7541 47.9351 97.9634 40.2437L96.5865 26.8511C95.7957 19.1597 88.9195 13.5656 81.2281 14.3563L18.1668 20.8396Z" stroke="#222222" stroke-width="2"/>
<path d="M30.3393 49.301L34.1471 48.8537L32.7642 37.0816L35.3653 36.7761L35.003 33.6923L32.4019 33.9978L32.3295 33.3811C32.1342 31.7185 32.6816 31.0561 34.5114 30.8955L34.1397 27.7313C29.9438 28.1155 28.0775 30.0474 28.5059 33.6943L28.5941 34.4452L26.9047 34.6436L27.267 37.7274L28.9564 37.529L30.3393 49.301ZM42.6022 40.3572C42.2651 37.4879 43.5051 36.4723 45.7308 36.2108L46.7229 36.0943L46.2599 32.1524C44.1951 32.395 42.7563 33.5698 41.9973 35.2086L41.7264 32.9024L37.9722 33.3435L39.7174 48.1993L43.4716 47.7583L42.6022 40.3572ZM56.066 34.0996C57.9968 33.8728 59.697 34.9236 59.9806 36.8748L52.9281 37.7033C52.9836 35.6307 54.2694 34.3106 56.066 34.0996ZM63.9817 40.6186L59.9325 41.0942C59.5664 42.1431 58.776 43.0515 57.1671 43.2406C55.29 43.4611 53.6434 42.404 53.1974 40.2271L64.0577 38.9513C64.0814 38.4592 64.0515 37.9734 63.9948 37.4907C63.4751 33.0661 60.1015 30.4992 55.811 31.0032C51.4133 31.5198 48.706 34.8555 49.2572 39.5482C49.8054 44.2141 53.2956 46.8489 57.6129 46.3417C61.2867 45.9101 63.4985 43.4483 63.9817 40.6186ZM73.1526 32.0923C75.0833 31.8655 76.7835 32.9163 77.0671 34.8676L70.0146 35.6961C70.0702 33.6234 71.356 32.3034 73.1526 32.0923ZM81.0683 38.6113L77.0191 39.087C76.653 40.1359 75.8626 41.0443 74.2536 41.2333C72.3765 41.4538 70.73 40.3967 70.2839 38.2199L81.1442 36.9441C81.168 36.4519 81.1381 35.9661 81.0814 35.4834C80.5616 31.0589 77.1881 28.4919 72.8976 28.996C68.4998 29.5126 65.7925 32.8482 66.3438 37.541C66.8919 42.2069 70.3822 44.8417 74.6995 44.3345C78.3732 43.9029 80.5851 41.441 81.0683 38.6113Z" fill="#DED5FA"/>
</g>
<defs>
<filter id="filter0_d_4_329" x="0.597473" y="6.00375" width="102.44" height="70.7191" filterUnits="userSpaceOnUse" color-interpolation-filters="sRGB">
<feFlood flood-opacity="0" result="BackgroundImageFix"/>
<feColorMatrix in="SourceAlpha" type="matrix" values="0 0 0 0 0 0 0 0 0 0 0 0 0 0 0 0 0 0 127 0" result="hardAlpha"/>
<feOffset dy="4"/>
<feGaussianBlur stdDeviation="2"/>
<feComposite in2="hardAlpha" operator="out"/>
<feColorMatrix type="matrix" values="0 0 0 0 0 0 0 0 0 0 0 0 0 0 0 0 0 0 0.25 0"/>
<feBlend mode="normal" in2="BackgroundImageFix" result="effect1_dropShadow_4_329"/>
<feBlend mode="normal" in="SourceGraphic" in2="effect1_dropShadow_4_329" result="shape"/>
</filter>
</defs>
</svg>
