<svg width="74" height="74" viewBox="0 0 74 74" fill="none" xmlns="http://www.w3.org/2000/svg">
<rect width="74" height="74" rx="23" fill="#F6F0D8"/>
<g clip-path="url(#clip0_11_2)">
<path d="M52.8739 50.8149C52.6267 50.6498 52.4215 50.5241 52.2287 50.3862C47.6131 47.0969 42.9975 43.8077 38.382 40.516C34.9629 38.0793 31.5513 35.6278 28.1199 33.2083C26.0853 31.7719 25.0816 29.8452 25.1088 27.3567C25.1261 25.7823 25.0841 24.2079 25.0742 22.6335C25.0742 22.5054 25.1088 22.3773 25.1385 22.1752C25.3214 22.2812 25.45 22.3428 25.5637 22.4241C29.2423 25.0579 32.9234 27.6967 36.5995 30.333C41.1508 33.5951 45.7046 36.8548 50.2485 40.1243C51.8875 41.3045 52.8517 42.9207 52.953 44.9263C53.0495 46.8087 52.9605 48.6984 52.9481 50.5857C52.9506 50.635 52.9209 50.6843 52.8739 50.8149Z" fill="#202020"/>
<path d="M25.047 33.0358C25.4994 33.3635 25.8455 33.6148 26.1916 33.8686C29.5439 36.33 32.8912 38.7987 36.2509 41.2503C38.0507 42.561 38.9506 44.3375 39.0124 46.5278C39.0593 48.2377 39.0247 49.9501 39.0223 51.66C39.0223 51.7511 38.9975 51.8423 38.9753 52.0024C38.827 51.9285 38.7058 51.8866 38.6069 51.8152C35.8653 49.8318 33.1236 47.846 30.3844 45.8601C29.4821 45.2072 28.5723 44.5617 27.6799 43.894C25.9221 42.5758 25.0247 40.8117 25.0074 38.6189C24.9926 36.9632 25.0049 35.305 25.0074 33.6493C25.0074 33.4916 25.0247 33.334 25.047 33.0358Z" fill="#202020"/>
<path d="M52.8369 39.8976C52.7182 39.8163 52.5971 39.7399 52.4833 39.6562C48.9036 37.0618 45.3214 34.4747 41.754 31.8705C39.9419 30.5474 39.0247 28.7438 39.0074 26.5017C38.9951 24.8584 39.005 23.215 39.005 21.5716C39.005 21.4115 39.005 21.2513 39.005 21C39.1978 21.1035 39.3313 21.1528 39.4425 21.2341C43.0791 23.9049 46.7281 26.5658 50.3474 29.2612C52.0779 30.5498 52.9704 32.2992 52.9629 34.4772C52.9555 36.1058 52.9605 37.7368 52.9605 39.3654C52.9605 39.5231 52.9605 39.6808 52.9605 39.841C52.9184 39.8582 52.8764 39.8779 52.8369 39.8976Z" fill="#202020"/>
</g>
<defs>
<clipPath id="clip0_11_2">
<rect width="28" height="31" fill="white" transform="translate(25 21)"/>
</clipPath>
</defs>
</svg>
