<svg width="35" height="35" viewBox="0 0 35 35" fill="none" xmlns="http://www.w3.org/2000/svg">
<path d="M11.1654 30.4842C11.9227 31.4475 13.0678 32 14.3073 32H27.2745C28.2276 32 29 31.2418 29 30.3062C29 29.3707 28.2276 28.6124 27.2745 28.6124H14.3073C14.0859 28.6124 13.9555 28.4884 13.8975 28.4146C13.8395 28.3408 13.7506 28.1857 13.8065 27.9756L15.935 20.0062L20.9719 18.1748C21.8656 17.85 22.3216 16.8754 21.9907 15.9984C21.6597 15.121 20.6672 14.6731 19.7735 14.9983L17.0037 16.0053L19.1086 8.1236C19.3502 7.21881 18.7989 6.29286 17.8772 6.05566C16.9551 5.81879 16.0122 6.35968 15.7706 7.2648L13.0523 17.4417L8.12664 19.2328C7.23291 19.5576 6.77694 20.5322 7.10788 21.4092C7.36569 22.0927 8.02487 22.5151 8.72617 22.5151C8.92501 22.5151 9.12755 22.4811 9.32503 22.4093L11.9837 21.443L10.4685 27.1165C10.1541 28.2935 10.4082 29.5209 11.1654 30.4842Z" fill="black"/>
</svg>
